<svg xmlns="http://www.w3.org/2000/svg" data-name="Layer 1" viewBox="0 0 24 24"><defs><linearGradient id="a" x1="2" x2="22" y1="12" y2="12" gradientUnits="userSpaceOnUse"><stop offset="0" stop-color="#29abe2"/><stop offset="1" stop-color="#39b54a"/></linearGradient></defs><path fill="url(#a)" d="M17.62,2.21H6.38A4.38,4.38,0,0,0,2,6.59v5a4.38,4.38,0,0,0,3.89,4.34l.24,4.69a1.15,1.15,0,0,0,2,.81L14.06,16h3.56A4.38,4.38,0,0,0,22,11.59v-5A4.38,4.38,0,0,0,17.62,2.21ZM20,11.59A2.38,2.38,0,0,1,17.62,14h-4a1,1,0,0,0-.68.27L8,18.79l-.2-3.88a1,1,0,0,0-1-.95H6.38A2.38,2.38,0,0,1,4,11.59v-5A2.38,2.38,0,0,1,6.38,4.21H17.62A2.38,2.38,0,0,1,20,6.59ZM17.94,7.06a1,1,0,0,1-1,1H7.06a1,1,0,0,1,0-2h9.88A1,1,0,0,1,17.94,7.06Zm0,3.94a1,1,0,0,1-1,1H7.06a1,1,0,0,1,0-2h9.88A1,1,0,0,1,17.94,11Z"/></svg>