<svg xmlns="http://www.w3.org/2000/svg" data-name="Layer 1" viewBox="0 0 24 24"><defs><linearGradient id="a" x1="2" x2="22" y1="12" y2="12" gradientUnits="userSpaceOnUse"><stop offset="0" stop-color="#29abe2"/><stop offset="1" stop-color="#39b54a"/></linearGradient></defs><path fill="url(#a)" d="M17.62012,2.20654H6.37988A4.38489,4.38489,0,0,0,2,6.58643v5A4.37988,4.37988,0,0,0,5.88867,15.9292l.24414,4.69238a1.15418,1.15418,0,0,0,1.99512.80762l5.93262-5.47266h3.55957A4.38,4.38,0,0,0,22,11.58643v-5A4.38489,4.38489,0,0,0,17.62012,2.20654ZM16.9375,12H7.0625a1,1,0,0,1,0-2h9.875a1,1,0,0,1,0,2Zm0-3.9375H7.0625a1,1,0,0,1,0-2h9.875a1,1,0,0,1,0,2Z"/></svg>