<svg xmlns="http://www.w3.org/2000/svg" data-name="Layer 1" viewBox="0 0 24 24"><defs><linearGradient id="a" x1="2" x2="22" y1="12.185" y2="12.185" gradientUnits="userSpaceOnUse"><stop offset="0" stop-color="#29abe2"/><stop offset="1" stop-color="#39b54a"/></linearGradient></defs><path fill="url(#a)" d="M14.0625,15.19775V22H9.9375V15.19775a1.28262,1.28262,0,0,1,1.28125-1.28125h1.5625A1.28262,1.28262,0,0,1,14.0625,15.19775Zm5.80469-7.3457L13.46533,2.873a2.38316,2.38316,0,0,0-2.93018-.00049L4.13281,7.85205A5.48772,5.48772,0,0,0,2,12.2124V21a1,1,0,0,0,1,1H7.9375V15.19775a3.28523,3.28523,0,0,1,3.28125-3.28125h1.5625a3.28523,3.28523,0,0,1,3.28125,3.28125V22H21a1,1,0,0,0,1-1V12.2124A5.48772,5.48772,0,0,0,19.86719,7.85205Z"/></svg>